<?xml version="1.0" encoding="UTF-8"?>
<svg id="Capa_2" data-name="Capa 2" xmlns="http://www.w3.org/2000/svg" viewBox="0 0 1200.51 292.1">
  <defs>
    <style>
      .cls-1 {
        fill: #0e1317;
        stroke-width: 0px;
      }
    </style>
  </defs>
  <g id="logo">
    <g>
      <g>
        <path class="cls-1" d="M367.23,120.41h-28.93l-7.53,16.41h-10.98l33.43-71.81,32.25,71.81h-11.16l-7.09-16.41ZM363.08,110.83l-10.02-22.97-10.5,22.97h20.52Z"/>
        <path class="cls-1" d="M425.61,101.64h27.92v2.23c0,5.08-.6,9.57-1.79,13.48-1.17,3.62-3.14,7-5.91,10.15-6.27,7.06-14.25,10.59-23.94,10.59s-17.55-3.41-24.29-10.24c-6.74-6.86-10.11-15.08-10.11-24.68s3.43-18.12,10.28-24.94c6.86-6.86,15.2-10.28,25.03-10.28,5.28,0,10.21,1.08,14.79,3.24,4.38,2.16,8.68,5.66,12.91,10.5l-7.26,6.96c-5.54-7.38-12.3-11.07-20.26-11.07-7.15,0-13.14,2.47-17.99,7.4-4.84,4.84-7.26,10.91-7.26,18.2s2.7,13.73,8.1,18.6c5.05,4.52,10.52,6.78,16.41,6.78,5.02,0,9.52-1.69,13.52-5.08,4-3.41,6.23-7.5,6.7-12.25h-16.85v-9.58Z"/>
        <path class="cls-1" d="M476.55,69.26v40.7c0,5.81.95,10.05,2.84,12.73,2.83,3.88,6.81,5.82,11.95,5.82s9.16-1.94,11.99-5.82c1.9-2.6,2.84-6.84,2.84-12.73v-40.7h10.2v43.5c0,7.12-2.22,12.98-6.65,17.59-4.99,5.14-11.12,7.7-18.38,7.7s-13.38-2.57-18.34-7.7c-4.43-4.61-6.65-10.47-6.65-17.59v-43.5h10.2Z"/>
        <path class="cls-1" d="M570.76,79.32l-8.27,4.9c-1.55-2.68-3.02-4.43-4.42-5.25-1.46-.93-3.34-1.4-5.65-1.4-2.83,0-5.18.8-7.05,2.41-1.87,1.58-2.8,3.56-2.8,5.95,0,3.3,2.45,5.95,7.35,7.96l6.74,2.76c5.48,2.22,9.5,4.92,12.03,8.12,2.54,3.19,3.81,7.11,3.81,11.75,0,6.21-2.07,11.35-6.21,15.4-4.17,4.08-9.35,6.13-15.53,6.13-5.86,0-10.71-1.74-14.53-5.21-3.76-3.47-6.11-8.36-7.05-14.66l10.33-2.28c.47,3.97,1.28,6.71,2.45,8.23,2.1,2.92,5.16,4.38,9.19,4.38,3.18,0,5.82-1.06,7.92-3.19,2.1-2.13,3.15-4.83,3.15-8.1,0-1.31-.18-2.52-.55-3.61-.37-1.09-.93-2.1-1.71-3.02-.77-.92-1.77-1.78-3-2.58-1.23-.8-2.68-1.57-4.38-2.3l-6.52-2.71c-9.25-3.91-13.87-9.63-13.87-17.15,0-5.08,1.94-9.32,5.82-12.73,3.88-3.44,8.71-5.16,14.48-5.16,7.79,0,13.87,3.79,18.25,11.38Z"/>
        <path class="cls-1" d="M604.72,78.84v57.98h-10.2v-57.98h-15.53v-9.58h41.22v9.58h-15.49Z"/>
        <path class="cls-1" d="M650.84,51.09l-16.8,12.08-4.86-4.07,13.35-14.09,8.31,6.08ZM639.51,69.26v67.57h-10.2v-67.57h10.2Z"/>
        <path class="cls-1" d="M655.74,136.82v-72.16l49.27,51.55v-46.95h10.2v71.68l-49.27-51.42v47.3h-10.2Z"/>
        <path class="cls-1" d="M792.8,78.84h-23.54v16.23h22.71v9.58h-22.71v32.16h-10.2v-67.57h33.74v9.58Z"/>
        <path class="cls-1" d="M801.33,102.73c0-9.51,3.49-17.68,10.46-24.51,6.94-6.83,15.29-10.24,25.03-10.24s17.88,3.44,24.77,10.33c6.91,6.89,10.37,15.16,10.37,24.81s-3.47,17.96-10.41,24.72c-6.97,6.8-15.39,10.2-25.25,10.2-8.72,0-16.56-3.02-23.5-9.06-7.64-6.68-11.47-15.43-11.47-26.26ZM811.62,102.86c0,7.47,2.51,13.61,7.53,18.42,4.99,4.81,10.75,7.22,17.29,7.22,7.09,0,13.07-2.45,17.94-7.35,4.87-4.96,7.31-11,7.31-18.12s-2.41-13.24-7.22-18.12c-4.78-4.9-10.71-7.35-17.77-7.35s-12.97,2.45-17.81,7.35c-4.84,4.84-7.26,10.82-7.26,17.94Z"/>
        <path class="cls-1" d="M884.78,136.82v-72.16l49.27,51.55v-46.95h10.2v71.68l-49.27-51.42v47.3h-10.2Z"/>
        <path class="cls-1" d="M979.08,78.84v57.98h-10.2v-57.98h-15.53v-9.58h41.22v9.58h-15.49Z"/>
        <path class="cls-1" d="M1039.69,120.41h-28.93l-7.53,16.41h-10.98l33.43-71.81,32.25,71.81h-11.16l-7.09-16.41ZM1035.53,110.83l-10.02-22.97-10.5,22.97h20.52Z"/>
        <path class="cls-1" d="M1066.39,136.82v-72.16l49.27,51.55v-46.95h10.2v71.68l-49.27-51.42v47.3h-10.2Z"/>
        <path class="cls-1" d="M1182.26,120.41h-28.93l-7.53,16.41h-10.98l33.43-71.81,32.25,71.81h-11.16l-7.09-16.41ZM1178.1,110.83l-10.02-22.97-10.5,22.97h20.52Z"/>
      </g>
      <g>
        <path class="cls-1" d="M663.32,203.34h-14.46l-3.76,8.2h-5.49l16.72-35.91,16.13,35.91h-5.58l-3.54-8.2ZM661.25,198.54l-5.01-11.49-5.25,11.49h10.26Z"/>
        <path class="cls-1" d="M676.67,211.54v-33.78h5.08c2.26,0,4.06.18,5.4.53,1.36.35,2.5.94,3.44,1.77.95.86,1.7,1.93,2.25,3.22.57,1.3.85,2.61.85,3.94,0,2.42-.93,4.47-2.78,6.15,1.79.61,3.21,1.68,4.24,3.22,1.05,1.52,1.58,3.28,1.58,5.29,0,2.64-.93,4.87-2.8,6.7-1.12,1.12-2.38,1.9-3.79,2.34-1.53.42-3.45.63-5.75.63h-7.72ZM681.77,192.26h1.6c1.9,0,3.29-.42,4.17-1.26s1.32-2.07,1.32-3.71-.45-2.8-1.36-3.62-2.22-1.24-3.94-1.24h-1.79v9.82ZM681.77,206.75h3.15c2.3,0,4-.45,5.08-1.36,1.14-.98,1.71-2.22,1.71-3.72s-.55-2.68-1.64-3.68c-1.06-.98-2.97-1.47-5.71-1.47h-2.58v10.22Z"/>
        <path class="cls-1" d="M701.22,194.5c0-4.76,1.74-8.84,5.23-12.25,3.47-3.41,7.64-5.12,12.52-5.12s8.94,1.72,12.38,5.16c3.46,3.44,5.19,7.58,5.19,12.41s-1.74,8.98-5.21,12.36c-3.49,3.4-7.69,5.1-12.62,5.1-4.36,0-8.28-1.51-11.75-4.53-3.82-3.34-5.73-7.72-5.73-13.13ZM706.36,194.56c0,3.73,1.25,6.8,3.76,9.21,2.49,2.41,5.38,3.61,8.64,3.61,3.54,0,6.53-1.23,8.97-3.68,2.44-2.48,3.65-5.5,3.65-9.06s-1.2-6.62-3.61-9.06c-2.39-2.45-5.35-3.68-8.88-3.68s-6.48,1.23-8.91,3.68c-2.42,2.42-3.63,5.41-3.63,8.97Z"/>
        <path class="cls-1" d="M760.32,193.95h13.96v1.12c0,2.54-.3,4.78-.9,6.74-.58,1.81-1.57,3.5-2.95,5.08-3.14,3.53-7.13,5.29-11.97,5.29s-8.77-1.71-12.14-5.12c-3.37-3.43-5.05-7.54-5.05-12.34s1.71-9.06,5.14-12.47c3.43-3.43,7.6-5.14,12.52-5.14,2.64,0,5.11.54,7.4,1.62,2.19,1.08,4.34,2.83,6.45,5.25l-3.63,3.48c-2.77-3.69-6.15-5.54-10.13-5.54-3.57,0-6.57,1.23-8.99,3.7-2.42,2.42-3.63,5.46-3.63,9.1s1.35,6.86,4.05,9.3c2.52,2.26,5.26,3.39,8.2,3.39,2.51,0,4.76-.85,6.76-2.54,2-1.71,3.11-3.75,3.35-6.13h-8.42v-4.79Z"/>
        <path class="cls-1" d="M799,203.34h-14.46l-3.76,8.2h-5.49l16.72-35.91,16.13,35.91h-5.58l-3.54-8.2ZM796.92,198.54l-5.01-11.49-5.25,11.49h10.26Z"/>
        <path class="cls-1" d="M812.35,211.54v-33.78h7.09c3.4,0,6.08.34,8.05,1.01,2.12.66,4.03,1.77,5.75,3.35,3.49,3.18,5.23,7.36,5.23,12.54s-1.82,9.39-5.45,12.6c-1.82,1.6-3.73,2.72-5.73,3.35-1.87.63-4.51.94-7.94.94h-7ZM817.45,206.75h2.3c2.29,0,4.19-.24,5.71-.72,1.52-.51,2.89-1.32,4.11-2.43,2.51-2.29,3.76-5.27,3.76-8.95s-1.24-6.71-3.72-9.01c-2.23-2.06-5.52-3.09-9.87-3.09h-2.3v24.2Z"/>
        <path class="cls-1" d="M843.2,194.5c0-4.76,1.74-8.84,5.23-12.25,3.47-3.41,7.64-5.12,12.52-5.12s8.94,1.72,12.38,5.16c3.46,3.44,5.19,7.58,5.19,12.41s-1.74,8.98-5.21,12.36c-3.49,3.4-7.69,5.1-12.62,5.1-4.36,0-8.28-1.51-11.75-4.53-3.82-3.34-5.73-7.72-5.73-13.13ZM848.34,194.56c0,3.73,1.25,6.8,3.76,9.21,2.49,2.41,5.38,3.61,8.64,3.61,3.54,0,6.53-1.23,8.97-3.68,2.44-2.48,3.65-5.5,3.65-9.06s-1.2-6.62-3.61-9.06c-2.39-2.45-5.35-3.68-8.88-3.68s-6.48,1.23-8.91,3.68c-2.42,2.42-3.63,5.41-3.63,8.97Z"/>
      </g>
      <g>
        <path class="cls-1" d="M139.94,7.8c13.14,7.93,32.23,15.64,56.84,22.94,12.59,3.74,23.57,6.45,30.06,7.96-.96,9.52-1.15,29.04,6.31,60.5,1.61,6.8,5.85,31.25-7.42,60.27-14.18,31-43.04,56.23-85.79,75.01-42.75-18.78-71.61-44-85.79-75.01-13.27-29.02-9.04-53.47-7.42-60.27,7.46-31.46,7.27-50.97,6.31-60.5,6.5-1.51,17.47-4.22,30.06-7.96,24.61-7.3,43.7-15.01,56.84-22.94M140.15,0c-.07.04-.14.08-.21.12-.07-.04-.14-.08-.21-.12-30.38,20.11-94.29,33.52-94.29,33.52,0,0,5.45,19.07-5.24,64.12-6.03,25.41-6.29,98.82,99.74,144.13,106.02-45.31,105.76-118.72,99.74-144.13-10.69-45.05-5.24-64.12-5.24-64.12,0,0-63.91-13.41-94.29-33.52h0Z"/>
        <path class="cls-1" d="M139.94,13.62c25.32,14.39,64.38,24.82,81.53,28.97-.61,11.13.18,29.87,6.79,57.76,1.95,8.24,16.03,81.75-88.32,128.61C35.59,182.09,49.67,108.59,51.62,100.35c6.62-27.89,7.4-46.63,6.79-57.76,17.14-4.15,56.2-14.58,81.53-28.97M139.94,11.69c-25.48,14.74-65.38,25.33-83.29,29.6.73,10.65.23,29.63-6.66,58.67-2.01,8.49-16.36,83.45,89.95,130.84,106.31-47.39,91.96-122.35,89.95-130.84-6.89-29.04-7.4-48.02-6.66-58.67-17.9-4.28-57.81-14.86-83.29-29.6h0Z"/>
        <path class="cls-1" d="M260.14,89.69c2.23,1.32,4.71,1.64,6.78,1.07,2.12-.27,4.3-1.51,5.85-3.58,1.6-2.14,2.17-4.67,1.75-6.82-2.18.21-4.44,1.47-6.04,3.62-1.21,1.62-1.83,3.45-1.88,5.18-.71-1.58-1.99-3.03-3.72-4.07-2.3-1.37-4.87-1.66-6.97-1.02.44,2.15,1.93,4.26,4.23,5.63Z"/>
        <path class="cls-1" d="M19.75,89.69c-2.23,1.32-4.71,1.64-6.78,1.07-2.12-.27-4.3-1.51-5.85-3.58-1.6-2.14-2.17-4.67-1.75-6.82,2.18.21,4.44,1.47,6.04,3.62,1.21,1.62,1.83,3.45,1.88,5.18.71-1.58,1.99-3.03,3.72-4.07,2.3-1.37,4.87-1.66,6.97-1.02-.44,2.15-1.93,4.26-4.23,5.63Z"/>
        <path class="cls-1" d="M270.36,97.8c-1.21,1.62-1.83,3.45-1.88,5.18-.71-1.58-1.99-3.03-3.72-4.07-2.3-1.37-4.87-1.66-6.97-1.02.44,2.15,1.93,4.26,4.23,5.63,2.23,1.32,4.71,1.64,6.78,1.07,2.12-.27,4.3-1.51,5.85-3.58,1.6-2.14,2.17-4.67,1.75-6.82-2.18.21-4.44,1.47-6.04,3.62Z"/>
        <path class="cls-1" d="M9.53,97.8c1.21,1.62,1.83,3.45,1.88,5.18.71-1.58,1.99-3.03,3.72-4.07,2.3-1.37,4.87-1.66,6.97-1.02-.44,2.15-1.93,4.26-4.23,5.63-2.23,1.32-4.71,1.64-6.78,1.07-2.12-.27-4.3-1.51-5.85-3.58-1.6-2.14-2.17-4.67-1.75-6.82,2.18.21,4.44,1.47,6.04,3.62Z"/>
        <path class="cls-1" d="M272.07,111.1c-1.28,1.71-1.94,3.66-1.99,5.5-.75-1.67-2.11-3.22-3.95-4.31-2.44-1.45-5.17-1.77-7.39-1.09.47,2.28,2.05,4.52,4.49,5.97,2.37,1.41,5,1.74,7.19,1.14,2.25-.28,4.56-1.6,6.21-3.8,1.7-2.27,2.3-4.95,1.86-7.24-2.32.23-4.72,1.56-6.41,3.84Z"/>
        <path class="cls-1" d="M7.82,111.1c1.28,1.71,1.94,3.66,1.99,5.5.75-1.67,2.11-3.22,3.95-4.31,2.44-1.45,5.17-1.77,7.39-1.09-.47,2.28-2.05,4.52-4.49,5.97-2.37,1.41-5,1.74-7.19,1.14-2.25-.28-4.56-1.6-6.21-3.8-1.7-2.27-2.3-4.95-1.86-7.24,2.32.23,4.72,1.56,6.41,3.84Z"/>
        <path class="cls-1" d="M269.92,131.85c-.54-1.81-1.71-3.57-3.43-4.93-2.29-1.81-5.02-2.5-7.38-2.11.17,2.39,1.47,4.89,3.76,6.7,2.22,1.75,4.86,2.45,7.17,2.14,2.33.02,4.86-1.01,6.84-3.03,2.04-2.08,3.02-4.73,2.88-7.12-2.39-.09-5.02.95-7.06,3.03-1.54,1.57-2.47,3.47-2.78,5.33Z"/>
        <path class="cls-1" d="M9.97,131.85c.54-1.81,1.71-3.57,3.43-4.93,2.29-1.81,5.02-2.5,7.38-2.11-.17,2.39-1.48,4.89-3.76,6.7-2.22,1.75-4.86,2.45-7.17,2.14-2.33.02-4.86-1.01-6.84-3.03-2.04-2.08-3.02-4.73-2.88-7.12,2.39-.09,5.02.95,7.06,3.03,1.54,1.57,2.47,3.47,2.78,5.33Z"/>
        <path class="cls-1" d="M272.47,142.48c-1.73,1.38-2.9,3.15-3.44,4.97-.31-1.87-1.26-3.77-2.81-5.35-2.06-2.09-4.7-3.12-7.1-3.03-.13,2.4.86,5.06,2.92,7.15,2,2.03,4.54,3.05,6.89,3.03,2.32.31,4.98-.4,7.2-2.17,2.29-1.82,3.6-4.34,3.76-6.74-2.37-.38-5.12.32-7.42,2.15Z"/>
        <path class="cls-1" d="M7.42,142.48c1.73,1.38,2.9,3.15,3.44,4.97.31-1.87,1.26-3.77,2.81-5.35,2.06-2.09,4.7-3.12,7.1-3.03.13,2.4-.86,5.06-2.92,7.15-2,2.03-4.54,3.05-6.89,3.03-2.32.31-4.98-.4-7.2-2.17-2.29-1.82-3.6-4.34-3.76-6.74,2.37-.38,5.12.32,7.42,2.15Z"/>
        <path class="cls-1" d="M269.13,160.4c-2.15,1.21-3.75,2.95-4.66,4.86-.01-2.11-.72-4.37-2.15-6.38-1.89-2.66-4.62-4.27-7.28-4.59-.57,2.62.05,5.72,1.95,8.38,1.84,2.58,4.46,4.16,7.04,4.55,2.5.75,5.55.44,8.31-1.11,2.85-1.6,4.73-4.14,5.34-6.75-2.54-.84-5.7-.55-8.54,1.05Z"/>
        <path class="cls-1" d="M10.76,160.4c2.15,1.21,3.75,2.95,4.66,4.86.01-2.11.72-4.37,2.15-6.38,1.89-2.66,4.62-4.27,7.28-4.59.57,2.62-.05,5.72-1.94,8.38-1.84,2.58-4.46,4.16-7.04,4.55-2.5.75-5.55.44-8.31-1.11-2.85-1.6-4.73-4.14-5.34-6.75,2.54-.84,5.7-.55,8.54,1.05Z"/>
        <path class="cls-1" d="M261.98,178.19c-2.55.92-4.6,2.52-5.94,4.42.37-2.3.02-4.87-1.17-7.31-1.57-3.23-4.24-5.47-7.06-6.3-1.09,2.74-.98,6.22.59,9.45,1.52,3.14,4.08,5.32,6.81,6.21,2.58,1.27,5.94,1.49,9.22.3,3.38-1.22,5.89-3.63,7.01-6.36-2.61-1.38-6.08-1.63-9.46-.41Z"/>
        <path class="cls-1" d="M17.91,178.19c2.55.92,4.6,2.52,5.94,4.42-.37-2.3-.02-4.87,1.17-7.31,1.57-3.23,4.24-5.47,7.06-6.3,1.09,2.74.98,6.22-.59,9.45-1.52,3.14-4.08,5.32-6.81,6.21-2.58,1.27-5.94,1.49-9.22.3-3.38-1.22-5.89-3.63-7.01-6.36,2.61-1.38,6.08-1.63,9.46-.41Z"/>
        <path class="cls-1" d="M253.39,192.65c-2.55.92-4.6,2.52-5.94,4.42.37-2.3.02-4.87-1.17-7.31-1.57-3.23-4.24-5.47-7.06-6.3-1.09,2.74-.98,6.22.59,9.45,1.52,3.14,4.08,5.32,6.81,6.21,2.58,1.27,5.94,1.49,9.22.3,3.38-1.22,5.89-3.63,7.01-6.36-2.61-1.38-6.08-1.63-9.46-.41Z"/>
        <path class="cls-1" d="M26.5,192.65c2.55.92,4.6,2.52,5.94,4.42-.37-2.3-.02-4.87,1.17-7.31,1.57-3.23,4.24-5.47,7.06-6.3,1.09,2.74.98,6.22-.59,9.45-1.52,3.14-4.08,5.32-6.81,6.21-2.58,1.27-5.94,1.49-9.22.3-3.38-1.22-5.89-3.63-7.01-6.36,2.61-1.38,6.08-1.63,9.46-.41Z"/>
        <path class="cls-1" d="M244.47,207.9c-2.65.59-4.88,1.92-6.45,3.64.65-2.23.63-4.83-.24-7.4-1.15-3.4-3.51-5.96-6.21-7.14-1.43,2.58-1.76,6.04-.6,9.45,1.12,3.3,3.38,5.79,5.98,7.02,2.4,1.58,5.7,2.22,9.1,1.46,3.51-.79,6.3-2.86,7.76-5.43-2.41-1.69-5.82-2.38-9.33-1.6Z"/>
        <path class="cls-1" d="M35.42,207.9c2.65.59,4.88,1.92,6.45,3.64-.65-2.23-.63-4.83.24-7.4,1.15-3.4,3.51-5.96,6.21-7.14,1.43,2.58,1.76,6.04.6,9.45-1.12,3.3-3.38,5.79-5.98,7.02-2.4,1.58-5.7,2.22-9.1,1.46-3.51-.79-6.3-2.86-7.76-5.43,2.41-1.69,5.82-2.38,9.33-1.6Z"/>
        <path class="cls-1" d="M233.18,221c-2.7.29-5.07,1.37-6.82,2.9.9-2.14,1.17-4.73.59-7.38-.76-3.51-2.82-6.31-5.38-7.79-1.71,2.4-2.42,5.81-1.66,9.32.74,3.41,2.71,6.14,5.15,7.65,2.21,1.84,5.42,2.84,8.88,2.47,3.57-.39,6.58-2.14,8.32-4.52-2.21-1.95-5.52-3.02-9.09-2.63Z"/>
        <path class="cls-1" d="M46.71,221c2.7.29,5.07,1.37,6.82,2.9-.9-2.14-1.17-4.73-.59-7.38.76-3.51,2.82-6.31,5.38-7.79,1.71,2.4,2.42,5.81,1.66,9.32-.74,3.41-2.71,6.14-5.15,7.65-2.21,1.84-5.42,2.84-8.88,2.47-3.57-.39-6.58-2.14-8.32-4.52,2.21-1.95,5.52-3.02,9.09-2.63Z"/>
        <path class="cls-1" d="M221.23,235.39c-2.99.16-5.66,1.2-7.68,2.78,1.12-2.31,1.57-5.14,1.09-8.09-.63-3.91-2.73-7.12-5.45-8.9-2.03,2.54-3.01,6.25-2.38,10.16.61,3.79,2.61,6.92,5.22,8.73,2.32,2.16,5.79,3.46,9.63,3.25,3.96-.21,7.37-1.96,9.43-4.48-2.32-2.28-5.9-3.66-9.85-3.44Z"/>
        <path class="cls-1" d="M58.66,235.39c2.99.16,5.66,1.2,7.68,2.78-1.12-2.31-1.57-5.14-1.09-8.09.63-3.91,2.73-7.12,5.45-8.9,2.02,2.54,3.01,6.25,2.38,10.16-.61,3.79-2.61,6.92-5.22,8.73-2.32,2.16-5.79,3.46-9.63,3.25-3.96-.21-7.37-1.96-9.43-4.48,2.32-2.28,5.9-3.66,9.85-3.44Z"/>
        <path class="cls-1" d="M207.14,247.15c-2.99-.1-5.74.7-7.89,2.1,1.31-2.2,2.01-4.99,1.79-7.97-.29-3.95-2.1-7.33-4.66-9.34-2.24,2.36-3.55,5.97-3.26,9.92.28,3.83,2,7.12,4.44,9.15,2.12,2.35,5.47,3.95,9.31,4.08,3.96.13,7.51-1.32,9.78-3.65-2.11-2.47-5.56-4.15-9.52-4.29Z"/>
        <path class="cls-1" d="M72.75,247.15c2.99-.1,5.74.7,7.89,2.1-1.31-2.2-2.01-4.99-1.79-7.97.29-3.95,2.1-7.33,4.66-9.34,2.24,2.36,3.55,5.97,3.26,9.92-.28,3.83-2,7.12-4.44,9.15-2.12,2.35-5.47,3.95-9.31,4.08-3.96.13-7.51-1.32-9.78-3.65,2.11-2.47,5.56-4.15,9.52-4.29Z"/>
        <path class="cls-1" d="M189.61,258.68c-2.95-.47-5.79-.02-8.09,1.1,1.58-2.02,2.62-4.69,2.78-7.68.21-3.96-1.16-7.54-3.45-9.85-2.52,2.06-4.27,5.47-4.48,9.43-.2,3.84,1.09,7.31,3.26,9.63,1.81,2.6,4.93,4.6,8.73,5.21,3.91.63,7.62-.36,10.16-2.39-1.78-2.72-4.99-4.82-8.9-5.45Z"/>
        <path class="cls-1" d="M90.28,258.68c2.95-.47,5.79-.02,8.09,1.1-1.58-2.02-2.62-4.69-2.78-7.68-.21-3.96,1.16-7.54,3.45-9.85,2.52,2.06,4.27,5.47,4.48,9.43.2,3.84-1.09,7.31-3.26,9.63-1.81,2.6-4.93,4.6-8.73,5.21-3.91.63-7.62-.36-10.16-2.39,1.78-2.72,4.99-4.82,8.9-5.45Z"/>
        <path class="cls-1" d="M265.55,80.86c1.34-2.12,1.84-4.75,1.19-7.38-.65-2.62-2.33-4.71-4.5-5.96-1.34,2.12-1.84,4.75-1.19,7.38.65,2.62,2.33,4.71,4.5,5.96Z"/>
        <path class="cls-1" d="M14.34,80.86c-1.34-2.12-1.85-4.75-1.19-7.38.65-2.62,2.33-4.71,4.5-5.96,1.34,2.12,1.85,4.75,1.19,7.38-.65,2.62-2.33,4.71-4.5,5.96Z"/>
      </g>
      <path class="cls-1" d="M176.41,267.69c-2.95-.47-5.79-.02-8.09,1.1,1.58-2.02,2.62-4.69,2.78-7.68.21-3.96-1.16-7.54-3.45-9.85-2.52,2.06-4.27,5.47-4.48,9.43-.16,3.03.94,6.17,2.34,8.36-1.68,1.21-5.55,3.28-10.57,4.45.69.78,1.06,1.91,1.24,2.71,3.56-.95,7.48-2.53,10.78-5.21,1.86,2.26,4.74,3.98,8.2,4.53,3.91.63,7.62-.36,10.16-2.39-1.78-2.72-4.99-4.82-8.9-5.45Z"/>
      <g>
        <path class="cls-1" d="M124.74,273.44c-4.92-1.18-8.71-3.21-10.36-4.4,1.4-2.19,2.5-5.33,2.34-8.36-.21-3.96-1.96-7.37-4.48-9.43-2.28,2.31-3.66,5.9-3.45,9.85.16,2.99,1.2,5.66,2.78,7.68-2.31-1.12-5.14-1.57-8.09-1.1-3.91.63-7.12,2.73-8.9,5.45,2.54,2.03,6.25,3.02,10.16,2.39,3.45-.55,6.34-2.27,8.2-4.53,3.28,2.65,7.17,4.23,10.71,5.19.16-.76.48-1.86,1.1-2.74Z"/>
        <path class="cls-1" d="M154.33,276.73c-.24-1.36-.76-2.06-1.5-2.87-.63-.62-1.44-1.13-2.46-1.4-2.53-.67-4.85.21-6.53,1.25.35-1.31.55-2.74.48-4.19-.25-5.57-3.26-9.24-4.37-9.81-1.1.57-4.11,4.24-4.37,9.81-.07,1.45.14,2.87.48,4.19-1.68-1.04-4-1.92-6.53-1.25-1.04.28-1.87.79-2.51,1.43-.62.57-1.14,1.51-1.47,2.9-.33,2.09.58,4.22,2.72,4.82,4.07,1.13-.63-1.21,3.11-3.24,2.5-1.36,5.31-.63,5.14,3.05-.11,2.38-1.28,5.28-4.1,4.25-1.26-.46.42,2.96,2.75,3.06.8.03,3.04-.28,3.34-1.92,0,2.07.74,4.7,1.43,5.27.69-.57,1.43-3.2,1.43-5.27.3,1.64,2.54,1.95,3.34,1.92,2.32-.1,4.01-3.53,2.75-3.06-2.82,1.03-3.99-1.86-4.1-4.25-.17-3.69,2.64-4.41,5.14-3.05,3.75,2.03-.95,4.37,3.11,3.24,2.17-.61,3.08-2.78,2.71-4.89Z"/>
      </g>
      <polygon class="cls-1" points="146.09 69.63 206.44 69.63 206.44 63.77 146.09 63.77 146.09 55.67 133.8 55.67 133.8 63.77 73.45 63.77 73.45 69.63 133.8 69.63 133.8 184.32 115.92 184.32 115.92 196.75 163.97 196.75 163.97 184.32 146.09 184.32 146.09 69.63"/>
      <path class="cls-1" d="M217.27,130.54l.13-.04-18.99-61.51-3.45.17,18.95,61.37h-43.98l19.01-61.55h-3.51l-19.07,61.75.14.04c2.45,9.27,12.89,16.24,25.42,16.24s23.17-7.09,25.49-16.48h-.14Z"/>
      <path class="cls-1" d="M94.6,69.42h-3.51l18.87,61.12h-43.98l18.87-61.12h-3.51l-18.86,61.08.13.04h-.14c2.33,9.39,12.85,16.48,25.49,16.48s22.97-6.97,25.42-16.24l.14-.04-18.94-61.32Z"/>
    </g>
  </g>
</svg>